<?xml version="1.0" encoding="UTF-8" standalone="no"?>
<!DOCTYPE svg PUBLIC "-//W3C//DTD SVG 1.1//EN"
 "http://www.w3.org/Graphics/SVG/1.1/DTD/svg11.dtd">
<!-- Generated by graphviz version 2.47.0 (20210316.0004)
 -->
<!-- Title: dependencies Pages: 1 -->
<svg width="504pt" height="284pt"
 viewBox="0.00 0.00 504.00 284.00" xmlns="http://www.w3.org/2000/svg" xmlns:xlink="http://www.w3.org/1999/xlink">
<g id="graph0" class="graph" transform="scale(1 1) rotate(0) translate(4 280)">
<title>dependencies</title>
<polygon fill="white" stroke="transparent" points="-4,4 -4,-280 500,-280 500,4 -4,4"/>
<text text-anchor="start" x="227.01" y="-42.4" font-family="Times-12" font-weight="bold" font-size="14.00">Legend</text>
<polygon fill="#ffffb3" stroke="transparent" points="14,-10 14,-30 34,-30 34,-10 14,-10"/>
<text text-anchor="start" x="37.63" y="-15.4" font-family="Times-12" font-size="14.00"> &#160;Declarations</text>
<polygon fill="#8dd3c7" stroke="transparent" points="127,-10 127,-30 147,-30 147,-10 127,-10"/>
<text text-anchor="start" x="150.73" y="-15.4" font-family="Times-12" font-size="14.00"> &#160;Module</text>
<polygon fill="#80b1d3" stroke="transparent" points="213,-10 213,-30 233,-30 233,-10 213,-10"/>
<text text-anchor="start" x="236.78" y="-15.4" font-family="Times-12" font-size="14.00"> &#160;Bootstrap</text>
<polygon fill="#fdb462" stroke="transparent" points="310,-10 310,-30 330,-30 330,-10 310,-10"/>
<text text-anchor="start" x="333.67" y="-15.4" font-family="Times-12" font-size="14.00"> &#160;Providers</text>
<polygon fill="#fb8072" stroke="transparent" points="406,-10 406,-30 426,-30 426,-10 406,-10"/>
<text text-anchor="start" x="429.73" y="-15.4" font-family="Times-12" font-size="14.00"> &#160;Exports</text>
<g id="clust1" class="cluster">
<title>cluster_SharedModule</title>
<polygon fill="none" stroke="black" stroke-dasharray="1,5" points="115.5,-70 115.5,-268 380.5,-268 380.5,-70 115.5,-70"/>
</g>
<g id="clust3" class="cluster">
<title>cluster_SharedModule_imports</title>
<polygon fill="none" stroke="black" points="126.5,-78 126.5,-130 369.5,-130 369.5,-78 126.5,-78"/>
</g>
<g id="clust4" class="cluster">
<title>cluster_SharedModule_exports</title>
<polygon fill="none" stroke="black" points="123.5,-208 123.5,-260 372.5,-260 372.5,-208 123.5,-208"/>
</g>
<!-- AtomicDesignModule -->
<g id="node1" class="node">
<title>AtomicDesignModule</title>
<polygon fill="#8dd3c7" stroke="black" points="361.2,-122 358.2,-126 337.2,-126 334.2,-122 219.8,-122 219.8,-86 361.2,-86 361.2,-122"/>
<text text-anchor="middle" x="290.5" y="-99.8" font-family="Times,serif" font-size="14.00">AtomicDesignModule</text>
</g>
<!-- SharedModule -->
<g id="node3" class="node">
<title>SharedModule</title>
<polygon fill="#8dd3c7" stroke="black" points="278.92,-187 275.92,-191 254.92,-191 251.92,-187 180.08,-187 180.08,-151 278.92,-151 278.92,-187"/>
<text text-anchor="middle" x="229.5" y="-164.8" font-family="Times,serif" font-size="14.00">SharedModule</text>
</g>
<!-- AtomicDesignModule&#45;&gt;SharedModule -->
<g id="edge1" class="edge">
<title>AtomicDesignModule&#45;&gt;SharedModule</title>
<path fill="none" stroke="black" d="M249.31,-122.11C249.31,-122.11 249.31,-140.99 249.31,-140.99"/>
<polygon fill="black" stroke="black" points="245.81,-140.99 249.31,-150.99 252.81,-140.99 245.81,-140.99"/>
</g>
<!-- DatePipe -->
<g id="node2" class="node">
<title>DatePipe</title>
<polygon fill="#8dd3c7" stroke="black" points="202.31,-122 199.31,-126 178.31,-126 175.31,-122 134.69,-122 134.69,-86 202.31,-86 202.31,-122"/>
<text text-anchor="middle" x="168.5" y="-99.8" font-family="Times,serif" font-size="14.00">DatePipe</text>
</g>
<!-- DatePipe&#45;&gt;SharedModule -->
<g id="edge2" class="edge">
<title>DatePipe&#45;&gt;SharedModule</title>
<path fill="none" stroke="black" d="M191.22,-122.11C191.22,-122.11 191.22,-140.99 191.22,-140.99"/>
<polygon fill="black" stroke="black" points="187.72,-140.99 191.22,-150.99 194.72,-140.99 187.72,-140.99"/>
</g>
<!-- AtomicDesignModule  -->
<g id="node4" class="node">
<title>AtomicDesignModule </title>
<polygon fill="#fb8072" stroke="black" points="364.7,-252 220.3,-252 220.3,-216 364.7,-216 364.7,-252"/>
<text text-anchor="middle" x="292.5" y="-229.8" font-family="Times,serif" font-size="14.00">AtomicDesignModule </text>
</g>
<!-- SharedModule&#45;&gt;AtomicDesignModule  -->
<g id="edge3" class="edge">
<title>SharedModule&#45;&gt;AtomicDesignModule </title>
<path fill="none" stroke="black" stroke-dasharray="5,2" d="M249.43,-187.11C249.43,-187.11 249.43,-205.99 249.43,-205.99"/>
<polygon fill="black" stroke="black" points="245.93,-205.99 249.43,-215.99 252.93,-205.99 245.93,-205.99"/>
</g>
<!-- DatePipe  -->
<g id="node5" class="node">
<title>DatePipe </title>
<polygon fill="#fb8072" stroke="black" points="201.81,-252 131.19,-252 131.19,-216 201.81,-216 201.81,-252"/>
<text text-anchor="middle" x="166.5" y="-229.8" font-family="Times,serif" font-size="14.00">DatePipe </text>
</g>
<!-- SharedModule&#45;&gt;DatePipe  -->
<g id="edge4" class="edge">
<title>SharedModule&#45;&gt;DatePipe </title>
<path fill="none" stroke="black" stroke-dasharray="5,2" d="M191.1,-187.11C191.1,-187.11 191.1,-205.99 191.1,-205.99"/>
<polygon fill="black" stroke="black" points="187.6,-205.99 191.1,-215.99 194.6,-205.99 187.6,-205.99"/>
</g>
</g>
</svg>
