<?xml version="1.0" encoding="UTF-8" standalone="no"?>
<!DOCTYPE svg PUBLIC "-//W3C//DTD SVG 1.1//EN"
 "http://www.w3.org/Graphics/SVG/1.1/DTD/svg11.dtd">
<!-- Generated by graphviz version 2.47.0 (20210316.0004)
 -->
<!-- Title: dependencies Pages: 1 -->
<svg width="1248pt" height="284pt"
 viewBox="0.00 0.00 1248.00 284.00" xmlns="http://www.w3.org/2000/svg" xmlns:xlink="http://www.w3.org/1999/xlink">
<g id="graph0" class="graph" transform="scale(1 1) rotate(0) translate(4 280)">
<title>dependencies</title>
<polygon fill="white" stroke="transparent" points="-4,4 -4,-280 1244,-280 1244,4 -4,4"/>
<text text-anchor="start" x="599.01" y="-42.4" font-family="Times-12" font-weight="bold" font-size="14.00">Legend</text>
<polygon fill="#ffffb3" stroke="transparent" points="386,-10 386,-30 406,-30 406,-10 386,-10"/>
<text text-anchor="start" x="409.63" y="-15.4" font-family="Times-12" font-size="14.00"> &#160;Declarations</text>
<polygon fill="#8dd3c7" stroke="transparent" points="499,-10 499,-30 519,-30 519,-10 499,-10"/>
<text text-anchor="start" x="522.73" y="-15.4" font-family="Times-12" font-size="14.00"> &#160;Module</text>
<polygon fill="#80b1d3" stroke="transparent" points="585,-10 585,-30 605,-30 605,-10 585,-10"/>
<text text-anchor="start" x="608.78" y="-15.4" font-family="Times-12" font-size="14.00"> &#160;Bootstrap</text>
<polygon fill="#fdb462" stroke="transparent" points="682,-10 682,-30 702,-30 702,-10 682,-10"/>
<text text-anchor="start" x="705.67" y="-15.4" font-family="Times-12" font-size="14.00"> &#160;Providers</text>
<polygon fill="#fb8072" stroke="transparent" points="778,-10 778,-30 798,-30 798,-10 778,-10"/>
<text text-anchor="start" x="801.73" y="-15.4" font-family="Times-12" font-size="14.00"> &#160;Exports</text>
<g id="clust1" class="cluster">
<title>cluster_AtomicDesignModule</title>
<polygon fill="none" stroke="black" stroke-dasharray="1,5" points="8,-70 8,-268 1232,-268 1232,-70 8,-70"/>
</g>
<g id="clust10" class="cluster">
<title>cluster_AtomicDesignModule_exports</title>
<polygon fill="none" stroke="black" points="99,-208 99,-260 1141,-260 1141,-208 99,-208"/>
</g>
<g id="clust9" class="cluster">
<title>cluster_AtomicDesignModule_imports</title>
<polygon fill="none" stroke="black" points="1046,-78 1046,-130 1224,-130 1224,-78 1046,-78"/>
</g>
<g id="clust2" class="cluster">
<title>cluster_AtomicDesignModule_declarations</title>
<polygon fill="none" stroke="black" points="16,-78 16,-130 1038,-130 1038,-78 16,-78"/>
</g>
<!-- FormAdvancedSearchComponent -->
<g id="node1" class="node">
<title>FormAdvancedSearchComponent</title>
<polygon fill="#ffffb3" stroke="black" points="1030,-122 824,-122 824,-86 1030,-86 1030,-122"/>
<text text-anchor="middle" x="927" y="-99.8" font-family="Times,serif" font-size="14.00">FormAdvancedSearchComponent</text>
</g>
<!-- AtomicDesignModule -->
<g id="node7" class="node">
<title>AtomicDesignModule</title>
<polygon fill="#8dd3c7" stroke="black" points="685.7,-187 682.7,-191 661.7,-191 658.7,-187 544.3,-187 544.3,-151 685.7,-151 685.7,-187"/>
<text text-anchor="middle" x="615" y="-164.8" font-family="Times,serif" font-size="14.00">AtomicDesignModule</text>
</g>
<!-- FormAdvancedSearchComponent&#45;&gt;AtomicDesignModule -->
<g id="edge1" class="edge">
<title>FormAdvancedSearchComponent&#45;&gt;AtomicDesignModule</title>
<path fill="none" stroke="black" d="M864.49,-122.24C864.49,-137.57 864.49,-157 864.49,-157 864.49,-157 695.83,-157 695.83,-157"/>
<polygon fill="black" stroke="black" points="695.83,-153.5 685.83,-157 695.83,-160.5 695.83,-153.5"/>
</g>
<!-- LoaderComponent -->
<g id="node2" class="node">
<title>LoaderComponent</title>
<polygon fill="#ffffb3" stroke="black" points="805.47,-122 684.53,-122 684.53,-86 805.47,-86 805.47,-122"/>
<text text-anchor="middle" x="745" y="-99.8" font-family="Times,serif" font-size="14.00">LoaderComponent</text>
</g>
<!-- LoaderComponent&#45;&gt;AtomicDesignModule -->
<g id="edge2" class="edge">
<title>LoaderComponent&#45;&gt;AtomicDesignModule</title>
<path fill="none" stroke="black" d="M684.46,-104C678.93,-104 675.36,-104 675.36,-104 675.36,-104 675.36,-140.89 675.36,-140.89"/>
<polygon fill="black" stroke="black" points="671.86,-140.89 675.36,-150.89 678.86,-140.89 671.86,-140.89"/>
</g>
<!-- ModalNewModifiedComponent -->
<g id="node3" class="node">
<title>ModalNewModifiedComponent</title>
<polygon fill="#ffffb3" stroke="black" points="666.41,-122 469.59,-122 469.59,-86 666.41,-86 666.41,-122"/>
<text text-anchor="middle" x="568" y="-99.8" font-family="Times,serif" font-size="14.00">ModalNewModifiedComponent</text>
</g>
<!-- ModalNewModifiedComponent&#45;&gt;AtomicDesignModule -->
<g id="edge3" class="edge">
<title>ModalNewModifiedComponent&#45;&gt;AtomicDesignModule</title>
<path fill="none" stroke="black" d="M605.3,-122.11C605.3,-122.11 605.3,-140.99 605.3,-140.99"/>
<polygon fill="black" stroke="black" points="601.8,-140.99 605.3,-150.99 608.8,-140.99 601.8,-140.99"/>
</g>
<!-- SideBarComponent -->
<g id="node4" class="node">
<title>SideBarComponent</title>
<polygon fill="#ffffb3" stroke="black" points="452.43,-122 325.57,-122 325.57,-86 452.43,-86 452.43,-122"/>
<text text-anchor="middle" x="389" y="-99.8" font-family="Times,serif" font-size="14.00">SideBarComponent</text>
</g>
<!-- SideBarComponent&#45;&gt;AtomicDesignModule -->
<g id="edge4" class="edge">
<title>SideBarComponent&#45;&gt;AtomicDesignModule</title>
<path fill="none" stroke="black" d="M433.62,-122.24C433.62,-137.57 433.62,-157 433.62,-157 433.62,-157 534.36,-157 534.36,-157"/>
<polygon fill="black" stroke="black" points="534.36,-160.5 544.36,-157 534.36,-153.5 534.36,-160.5"/>
</g>
<!-- TableCrudComponent -->
<g id="node5" class="node">
<title>TableCrudComponent</title>
<polygon fill="#ffffb3" stroke="black" points="307.7,-122 166.3,-122 166.3,-86 307.7,-86 307.7,-122"/>
<text text-anchor="middle" x="237" y="-99.8" font-family="Times,serif" font-size="14.00">TableCrudComponent</text>
</g>
<!-- TableCrudComponent&#45;&gt;AtomicDesignModule -->
<g id="edge5" class="edge">
<title>TableCrudComponent&#45;&gt;AtomicDesignModule</title>
<path fill="none" stroke="black" d="M280.12,-122.02C280.12,-139.37 280.12,-163 280.12,-163 280.12,-163 534.39,-163 534.39,-163"/>
<polygon fill="black" stroke="black" points="534.39,-166.5 544.39,-163 534.39,-159.5 534.39,-166.5"/>
</g>
<!-- TopBarComponent -->
<g id="node6" class="node">
<title>TopBarComponent</title>
<polygon fill="#ffffb3" stroke="black" points="148.1,-122 23.9,-122 23.9,-86 148.1,-86 148.1,-122"/>
<text text-anchor="middle" x="86" y="-99.8" font-family="Times,serif" font-size="14.00">TopBarComponent</text>
</g>
<!-- TopBarComponent&#45;&gt;AtomicDesignModule -->
<g id="edge6" class="edge">
<title>TopBarComponent&#45;&gt;AtomicDesignModule</title>
<path fill="none" stroke="black" d="M127.62,-122.11C127.62,-141.34 127.62,-169 127.62,-169 127.62,-169 534.39,-169 534.39,-169"/>
<polygon fill="black" stroke="black" points="534.39,-172.5 544.39,-169 534.39,-165.5 534.39,-172.5"/>
</g>
<!-- FormAdvancedSearchComponent  -->
<g id="node10" class="node">
<title>FormAdvancedSearchComponent </title>
<polygon fill="#fb8072" stroke="black" points="1133,-252 923,-252 923,-216 1133,-216 1133,-252"/>
<text text-anchor="middle" x="1028" y="-229.8" font-family="Times,serif" font-size="14.00">FormAdvancedSearchComponent </text>
</g>
<!-- AtomicDesignModule&#45;&gt;FormAdvancedSearchComponent  -->
<g id="edge9" class="edge">
<title>AtomicDesignModule&#45;&gt;FormAdvancedSearchComponent </title>
<path fill="none" stroke="black" stroke-dasharray="5,2" d="M686.01,-175C791.33,-175 976.62,-175 976.62,-175 976.62,-175 976.62,-205.98 976.62,-205.98"/>
<polygon fill="black" stroke="black" points="973.13,-205.98 976.62,-215.98 980.13,-205.98 973.13,-205.98"/>
</g>
<!-- LoaderComponent  -->
<g id="node11" class="node">
<title>LoaderComponent </title>
<polygon fill="#fb8072" stroke="black" points="905.48,-252 780.52,-252 780.52,-216 905.48,-216 905.48,-252"/>
<text text-anchor="middle" x="843" y="-229.8" font-family="Times,serif" font-size="14.00">LoaderComponent </text>
</g>
<!-- AtomicDesignModule&#45;&gt;LoaderComponent  -->
<g id="edge10" class="edge">
<title>AtomicDesignModule&#45;&gt;LoaderComponent </title>
<path fill="none" stroke="black" stroke-dasharray="5,2" d="M685.66,-181C735.39,-181 793.12,-181 793.12,-181 793.12,-181 793.12,-205.76 793.12,-205.76"/>
<polygon fill="black" stroke="black" points="789.63,-205.76 793.12,-215.76 796.63,-205.76 789.63,-205.76"/>
</g>
<!-- ModalNewModifiedComponent  -->
<g id="node12" class="node">
<title>ModalNewModifiedComponent </title>
<polygon fill="#fb8072" stroke="black" points="762.91,-252 563.09,-252 563.09,-216 762.91,-216 762.91,-252"/>
<text text-anchor="middle" x="663" y="-229.8" font-family="Times,serif" font-size="14.00">ModalNewModifiedComponent </text>
</g>
<!-- AtomicDesignModule&#45;&gt;ModalNewModifiedComponent  -->
<g id="edge11" class="edge">
<title>AtomicDesignModule&#45;&gt;ModalNewModifiedComponent </title>
<path fill="none" stroke="black" stroke-dasharray="5,2" d="M624.32,-187.11C624.32,-187.11 624.32,-205.99 624.32,-205.99"/>
<polygon fill="black" stroke="black" points="620.82,-205.99 624.32,-215.99 627.82,-205.99 620.82,-205.99"/>
</g>
<!-- SideBarComponent  -->
<g id="node13" class="node">
<title>SideBarComponent </title>
<polygon fill="#fb8072" stroke="black" points="544.93,-252 415.07,-252 415.07,-216 544.93,-216 544.93,-252"/>
<text text-anchor="middle" x="480" y="-229.8" font-family="Times,serif" font-size="14.00">SideBarComponent </text>
</g>
<!-- AtomicDesignModule&#45;&gt;SideBarComponent  -->
<g id="edge12" class="edge">
<title>AtomicDesignModule&#45;&gt;SideBarComponent </title>
<path fill="none" stroke="black" stroke-dasharray="5,2" d="M554.01,-187.11C554.01,-206.34 554.01,-234 554.01,-234 554.01,-234 553.13,-234 553.13,-234"/>
<polygon fill="black" stroke="black" points="555.23,-230.5 545.23,-234 555.23,-237.5 555.23,-230.5"/>
</g>
<!-- TableCrudComponent  -->
<g id="node14" class="node">
<title>TableCrudComponent </title>
<polygon fill="#fb8072" stroke="black" points="397.2,-252 252.8,-252 252.8,-216 397.2,-216 397.2,-252"/>
<text text-anchor="middle" x="325" y="-229.8" font-family="Times,serif" font-size="14.00">TableCrudComponent </text>
</g>
<!-- AtomicDesignModule&#45;&gt;TableCrudComponent  -->
<g id="edge13" class="edge">
<title>AtomicDesignModule&#45;&gt;TableCrudComponent </title>
<path fill="none" stroke="black" stroke-dasharray="5,2" d="M544.07,-181C469.09,-181 361.57,-181 361.57,-181 361.57,-181 361.57,-205.76 361.57,-205.76"/>
<polygon fill="black" stroke="black" points="358.07,-205.76 361.57,-215.76 365.07,-205.76 358.07,-205.76"/>
</g>
<!-- TopBarComponent  -->
<g id="node15" class="node">
<title>TopBarComponent </title>
<polygon fill="#fb8072" stroke="black" points="234.6,-252 107.4,-252 107.4,-216 234.6,-216 234.6,-252"/>
<text text-anchor="middle" x="171" y="-229.8" font-family="Times,serif" font-size="14.00">TopBarComponent </text>
</g>
<!-- AtomicDesignModule&#45;&gt;TopBarComponent  -->
<g id="edge14" class="edge">
<title>AtomicDesignModule&#45;&gt;TopBarComponent </title>
<path fill="none" stroke="black" stroke-dasharray="5,2" d="M544.23,-175C425.87,-175 200.6,-175 200.6,-175 200.6,-175 200.6,-205.98 200.6,-205.98"/>
<polygon fill="black" stroke="black" points="197.1,-205.98 200.6,-215.98 204.1,-205.98 197.1,-205.98"/>
</g>
<!-- DatePipe -->
<g id="node8" class="node">
<title>DatePipe</title>
<polygon fill="#8dd3c7" stroke="black" points="1215.81,-122 1212.81,-126 1191.81,-126 1188.81,-122 1148.19,-122 1148.19,-86 1215.81,-86 1215.81,-122"/>
<text text-anchor="middle" x="1182" y="-99.8" font-family="Times,serif" font-size="14.00">DatePipe</text>
</g>
<!-- DatePipe&#45;&gt;AtomicDesignModule -->
<g id="edge7" class="edge">
<title>DatePipe&#45;&gt;AtomicDesignModule</title>
<path fill="none" stroke="black" d="M1182,-122.11C1182,-141.34 1182,-169 1182,-169 1182,-169 695.66,-169 695.66,-169"/>
<polygon fill="black" stroke="black" points="695.66,-165.5 685.66,-169 695.66,-172.5 695.66,-165.5"/>
</g>
<!-- PhonePipe -->
<g id="node9" class="node">
<title>PhonePipe</title>
<polygon fill="#8dd3c7" stroke="black" points="1129.89,-122 1126.89,-126 1105.89,-126 1102.89,-122 1054.11,-122 1054.11,-86 1129.89,-86 1129.89,-122"/>
<text text-anchor="middle" x="1092" y="-99.8" font-family="Times,serif" font-size="14.00">PhonePipe</text>
</g>
<!-- PhonePipe&#45;&gt;AtomicDesignModule -->
<g id="edge8" class="edge">
<title>PhonePipe&#45;&gt;AtomicDesignModule</title>
<path fill="none" stroke="black" d="M1092,-122.02C1092,-139.37 1092,-163 1092,-163 1092,-163 695.64,-163 695.64,-163"/>
<polygon fill="black" stroke="black" points="695.64,-159.5 685.64,-163 695.64,-166.5 695.64,-159.5"/>
</g>
</g>
</svg>
