<?xml version="1.0" encoding="UTF-8" standalone="no"?>
<!DOCTYPE svg PUBLIC "-//W3C//DTD SVG 1.1//EN"
 "http://www.w3.org/Graphics/SVG/1.1/DTD/svg11.dtd">
<!-- Generated by graphviz version 2.47.0 (20210316.0004)
 -->
<!-- Title: dependencies Pages: 1 -->
<svg width="936pt" height="284pt"
 viewBox="0.00 0.00 936.00 284.00" xmlns="http://www.w3.org/2000/svg" xmlns:xlink="http://www.w3.org/1999/xlink">
<g id="graph0" class="graph" transform="scale(1 1) rotate(0) translate(4 280)">
<title>dependencies</title>
<polygon fill="white" stroke="transparent" points="-4,4 -4,-280 932,-280 932,4 -4,4"/>
<text text-anchor="start" x="443.01" y="-42.4" font-family="Times-12" font-weight="bold" font-size="14.00">Legend</text>
<polygon fill="#ffffb3" stroke="transparent" points="230,-10 230,-30 250,-30 250,-10 230,-10"/>
<text text-anchor="start" x="253.63" y="-15.4" font-family="Times-12" font-size="14.00"> &#160;Declarations</text>
<polygon fill="#8dd3c7" stroke="transparent" points="343,-10 343,-30 363,-30 363,-10 343,-10"/>
<text text-anchor="start" x="366.73" y="-15.4" font-family="Times-12" font-size="14.00"> &#160;Module</text>
<polygon fill="#80b1d3" stroke="transparent" points="429,-10 429,-30 449,-30 449,-10 429,-10"/>
<text text-anchor="start" x="452.78" y="-15.4" font-family="Times-12" font-size="14.00"> &#160;Bootstrap</text>
<polygon fill="#fdb462" stroke="transparent" points="526,-10 526,-30 546,-30 546,-10 526,-10"/>
<text text-anchor="start" x="549.67" y="-15.4" font-family="Times-12" font-size="14.00"> &#160;Providers</text>
<polygon fill="#fb8072" stroke="transparent" points="622,-10 622,-30 642,-30 642,-10 622,-10"/>
<text text-anchor="start" x="645.73" y="-15.4" font-family="Times-12" font-size="14.00"> &#160;Exports</text>
<g id="clust1" class="cluster">
<title>cluster_AppModule</title>
<polygon fill="none" stroke="black" stroke-dasharray="1,5" points="8,-70 8,-268 920,-268 920,-70 8,-70"/>
</g>
<g id="clust5" class="cluster">
<title>cluster_AppModule_imports</title>
<polygon fill="none" stroke="black" points="492,-78 492,-130 912,-130 912,-78 492,-78"/>
</g>
<g id="clust8" class="cluster">
<title>cluster_AppModule_providers</title>
<polygon fill="none" stroke="black" points="298,-78 298,-130 484,-130 484,-78 298,-78"/>
</g>
<g id="clust7" class="cluster">
<title>cluster_AppModule_bootstrap</title>
<polygon fill="none" stroke="black" points="408,-208 408,-260 532,-260 532,-208 408,-208"/>
</g>
<g id="clust2" class="cluster">
<title>cluster_AppModule_declarations</title>
<polygon fill="none" stroke="black" points="16,-78 16,-130 290,-130 290,-78 16,-78"/>
</g>
<!-- AppComponent -->
<g id="node1" class="node">
<title>AppComponent</title>
<polygon fill="#ffffb3" stroke="black" points="281.94,-122 176.06,-122 176.06,-86 281.94,-86 281.94,-122"/>
<text text-anchor="middle" x="229" y="-99.8" font-family="Times,serif" font-size="14.00">AppComponent</text>
</g>
<!-- AppModule -->
<g id="node3" class="node">
<title>AppModule</title>
<polygon fill="#8dd3c7" stroke="black" points="511.66,-187 508.66,-191 487.66,-191 484.66,-187 428.34,-187 428.34,-151 511.66,-151 511.66,-187"/>
<text text-anchor="middle" x="470" y="-164.8" font-family="Times,serif" font-size="14.00">AppModule</text>
</g>
<!-- AppComponent&#45;&gt;AppModule -->
<g id="edge1" class="edge">
<title>AppComponent&#45;&gt;AppModule</title>
<path fill="none" stroke="black" d="M229,-122.02C229,-139.37 229,-163 229,-163 229,-163 418.3,-163 418.3,-163"/>
<polygon fill="black" stroke="black" points="418.3,-166.5 428.3,-163 418.3,-159.5 418.3,-166.5"/>
</g>
<!-- AppMainComponent -->
<g id="node2" class="node">
<title>AppMainComponent</title>
<polygon fill="#ffffb3" stroke="black" points="158.49,-122 23.51,-122 23.51,-86 158.49,-86 158.49,-122"/>
<text text-anchor="middle" x="91" y="-99.8" font-family="Times,serif" font-size="14.00">AppMainComponent</text>
</g>
<!-- AppMainComponent&#45;&gt;AppModule -->
<g id="edge2" class="edge">
<title>AppMainComponent&#45;&gt;AppModule</title>
<path fill="none" stroke="black" d="M91,-122.28C91,-143.32 91,-175 91,-175 91,-175 417.99,-175 417.99,-175"/>
<polygon fill="black" stroke="black" points="417.99,-178.5 427.99,-175 417.99,-171.5 417.99,-178.5"/>
</g>
<!-- AppComponent  -->
<g id="node7" class="node">
<title>AppComponent </title>
<polygon fill="#80b1d3" stroke="black" points="524.44,-252 415.56,-252 415.56,-216 524.44,-216 524.44,-252"/>
<text text-anchor="middle" x="470" y="-229.8" font-family="Times,serif" font-size="14.00">AppComponent </text>
</g>
<!-- AppModule&#45;&gt;AppComponent  -->
<g id="edge6" class="edge">
<title>AppModule&#45;&gt;AppComponent </title>
<path fill="none" stroke="black" stroke-dasharray="1,5" d="M470,-187.11C470,-187.11 470,-205.99 470,-205.99"/>
<polygon fill="black" stroke="black" points="466.5,-205.99 470,-215.99 473.5,-205.99 466.5,-205.99"/>
</g>
<!-- AppRoutingModule -->
<g id="node4" class="node">
<title>AppRoutingModule</title>
<polygon fill="#8dd3c7" stroke="black" points="904.27,-122 901.27,-126 880.27,-126 877.27,-122 775.73,-122 775.73,-86 904.27,-86 904.27,-122"/>
<text text-anchor="middle" x="840" y="-99.8" font-family="Times,serif" font-size="14.00">AppRoutingModule</text>
</g>
<!-- AppRoutingModule&#45;&gt;AppModule -->
<g id="edge3" class="edge">
<title>AppRoutingModule&#45;&gt;AppModule</title>
<path fill="none" stroke="black" d="M840,-122.28C840,-143.32 840,-175 840,-175 840,-175 521.72,-175 521.72,-175"/>
<polygon fill="black" stroke="black" points="521.72,-171.5 511.72,-175 521.72,-178.5 521.72,-171.5"/>
</g>
<!-- AtomicDesignModule -->
<g id="node5" class="node">
<title>AtomicDesignModule</title>
<polygon fill="#8dd3c7" stroke="black" points="757.7,-122 754.7,-126 733.7,-126 730.7,-122 616.3,-122 616.3,-86 757.7,-86 757.7,-122"/>
<text text-anchor="middle" x="687" y="-99.8" font-family="Times,serif" font-size="14.00">AtomicDesignModule</text>
</g>
<!-- AtomicDesignModule&#45;&gt;AppModule -->
<g id="edge4" class="edge">
<title>AtomicDesignModule&#45;&gt;AppModule</title>
<path fill="none" stroke="black" d="M687,-122.02C687,-139.37 687,-163 687,-163 687,-163 521.84,-163 521.84,-163"/>
<polygon fill="black" stroke="black" points="521.84,-159.5 511.84,-163 521.84,-166.5 521.84,-159.5"/>
</g>
<!-- SharedModule -->
<g id="node6" class="node">
<title>SharedModule</title>
<polygon fill="#8dd3c7" stroke="black" points="598.42,-122 595.42,-126 574.42,-126 571.42,-122 499.58,-122 499.58,-86 598.42,-86 598.42,-122"/>
<text text-anchor="middle" x="549" y="-99.8" font-family="Times,serif" font-size="14.00">SharedModule</text>
</g>
<!-- SharedModule&#45;&gt;AppModule -->
<g id="edge5" class="edge">
<title>SharedModule&#45;&gt;AppModule</title>
<path fill="none" stroke="black" d="M505.81,-122.11C505.81,-122.11 505.81,-140.99 505.81,-140.99"/>
<polygon fill="black" stroke="black" points="502.31,-140.99 505.81,-150.99 509.31,-140.99 502.31,-140.99"/>
</g>
<!-- RequestInterceptor -->
<g id="node8" class="node">
<title>RequestInterceptor</title>
<ellipse fill="#fdb462" stroke="black" cx="391" cy="-104" rx="84.51" ry="18"/>
<text text-anchor="middle" x="391" y="-99.8" font-family="Times,serif" font-size="14.00">RequestInterceptor</text>
</g>
<!-- RequestInterceptor&#45;&gt;AppModule -->
<g id="edge7" class="edge">
<title>RequestInterceptor&#45;&gt;AppModule</title>
<path fill="none" stroke="black" d="M451.84,-116.53C451.84,-116.53 451.84,-140.85 451.84,-140.85"/>
<polygon fill="black" stroke="black" points="448.34,-140.85 451.84,-150.85 455.34,-140.85 448.34,-140.85"/>
</g>
</g>
</svg>
