<?xml version="1.0" encoding="UTF-8" standalone="no"?>
<!DOCTYPE svg PUBLIC "-//W3C//DTD SVG 1.1//EN"
 "http://www.w3.org/Graphics/SVG/1.1/DTD/svg11.dtd">
<!-- Generated by graphviz version 2.47.0 (20210316.0004)
 -->
<!-- Title: dependencies Pages: 1 -->
<svg width="576pt" height="211pt"
 viewBox="0.00 0.00 576.00 211.00" xmlns="http://www.w3.org/2000/svg" xmlns:xlink="http://www.w3.org/1999/xlink">
<g id="graph0" class="graph" transform="scale(1 1) rotate(0) translate(4 207)">
<title>dependencies</title>
<polygon fill="white" stroke="transparent" points="-4,4 -4,-207 572,-207 572,4 -4,4"/>
<text text-anchor="start" x="263.01" y="-42.4" font-family="Times-12" font-weight="bold" font-size="14.00">Legend</text>
<polygon fill="#ffffb3" stroke="transparent" points="50,-10 50,-30 70,-30 70,-10 50,-10"/>
<text text-anchor="start" x="73.63" y="-15.4" font-family="Times-12" font-size="14.00"> &#160;Declarations</text>
<polygon fill="#8dd3c7" stroke="transparent" points="163,-10 163,-30 183,-30 183,-10 163,-10"/>
<text text-anchor="start" x="186.73" y="-15.4" font-family="Times-12" font-size="14.00"> &#160;Module</text>
<polygon fill="#80b1d3" stroke="transparent" points="249,-10 249,-30 269,-30 269,-10 249,-10"/>
<text text-anchor="start" x="272.78" y="-15.4" font-family="Times-12" font-size="14.00"> &#160;Bootstrap</text>
<polygon fill="#fdb462" stroke="transparent" points="346,-10 346,-30 366,-30 366,-10 346,-10"/>
<text text-anchor="start" x="369.67" y="-15.4" font-family="Times-12" font-size="14.00"> &#160;Providers</text>
<polygon fill="#fb8072" stroke="transparent" points="442,-10 442,-30 462,-30 462,-10 442,-10"/>
<text text-anchor="start" x="465.73" y="-15.4" font-family="Times-12" font-size="14.00"> &#160;Exports</text>
<g id="clust1" class="cluster">
<title>cluster_PagesModule</title>
<polygon fill="none" stroke="black" stroke-dasharray="1,5" points="8,-70 8,-195 560,-195 560,-70 8,-70"/>
</g>
<g id="clust5" class="cluster">
<title>cluster_PagesModule_imports</title>
<polygon fill="none" stroke="black" points="282,-78 282,-130 552,-130 552,-78 282,-78"/>
</g>
<g id="clust2" class="cluster">
<title>cluster_PagesModule_declarations</title>
<polygon fill="none" stroke="black" points="16,-78 16,-130 274,-130 274,-78 16,-78"/>
</g>
<!-- CrudComponent -->
<g id="node1" class="node">
<title>CrudComponent</title>
<polygon fill="#ffffb3" stroke="black" points="265.83,-122 156.17,-122 156.17,-86 265.83,-86 265.83,-122"/>
<text text-anchor="middle" x="211" y="-99.8" font-family="Times,serif" font-size="14.00">CrudComponent</text>
</g>
<!-- PagesModule -->
<g id="node3" class="node">
<title>PagesModule</title>
<polygon fill="#8dd3c7" stroke="black" points="321.21,-187 318.21,-191 297.21,-191 294.21,-187 228.79,-187 228.79,-151 321.21,-151 321.21,-187"/>
<text text-anchor="middle" x="275" y="-164.8" font-family="Times,serif" font-size="14.00">PagesModule</text>
</g>
<!-- CrudComponent&#45;&gt;PagesModule -->
<g id="edge1" class="edge">
<title>CrudComponent&#45;&gt;PagesModule</title>
<path fill="none" stroke="black" d="M247.28,-122.11C247.28,-122.11 247.28,-140.99 247.28,-140.99"/>
<polygon fill="black" stroke="black" points="243.78,-140.99 247.28,-150.99 250.78,-140.99 243.78,-140.99"/>
</g>
<!-- LoginComponent -->
<g id="node2" class="node">
<title>LoginComponent</title>
<polygon fill="#ffffb3" stroke="black" points="138.28,-122 23.72,-122 23.72,-86 138.28,-86 138.28,-122"/>
<text text-anchor="middle" x="81" y="-99.8" font-family="Times,serif" font-size="14.00">LoginComponent</text>
</g>
<!-- LoginComponent&#45;&gt;PagesModule -->
<g id="edge2" class="edge">
<title>LoginComponent&#45;&gt;PagesModule</title>
<path fill="none" stroke="black" d="M81,-122.11C81,-141.34 81,-169 81,-169 81,-169 218.53,-169 218.53,-169"/>
<polygon fill="black" stroke="black" points="218.53,-172.5 228.53,-169 218.53,-165.5 218.53,-172.5"/>
</g>
<!-- PagesRoutingModule -->
<g id="node4" class="node">
<title>PagesRoutingModule</title>
<polygon fill="#8dd3c7" stroke="black" points="543.82,-122 540.82,-126 519.82,-126 516.82,-122 406.18,-122 406.18,-86 543.82,-86 543.82,-122"/>
<text text-anchor="middle" x="475" y="-99.8" font-family="Times,serif" font-size="14.00">PagesRoutingModule</text>
</g>
<!-- PagesRoutingModule&#45;&gt;PagesModule -->
<g id="edge3" class="edge">
<title>PagesRoutingModule&#45;&gt;PagesModule</title>
<path fill="none" stroke="black" d="M475,-122.11C475,-141.34 475,-169 475,-169 475,-169 331.14,-169 331.14,-169"/>
<polygon fill="black" stroke="black" points="331.14,-165.5 321.14,-169 331.14,-172.5 331.14,-165.5"/>
</g>
<!-- SharedModule -->
<g id="node5" class="node">
<title>SharedModule</title>
<polygon fill="#8dd3c7" stroke="black" points="388.42,-122 385.42,-126 364.42,-126 361.42,-122 289.58,-122 289.58,-86 388.42,-86 388.42,-122"/>
<text text-anchor="middle" x="339" y="-99.8" font-family="Times,serif" font-size="14.00">SharedModule</text>
</g>
<!-- SharedModule&#45;&gt;PagesModule -->
<g id="edge4" class="edge">
<title>SharedModule&#45;&gt;PagesModule</title>
<path fill="none" stroke="black" d="M305.45,-122.11C305.45,-122.11 305.45,-140.99 305.45,-140.99"/>
<polygon fill="black" stroke="black" points="301.95,-140.99 305.45,-150.99 308.95,-140.99 301.95,-140.99"/>
</g>
</g>
</svg>
