<?xml version="1.0" encoding="UTF-8" standalone="no"?>
<!DOCTYPE svg PUBLIC "-//W3C//DTD SVG 1.1//EN"
 "http://www.w3.org/Graphics/SVG/1.1/DTD/svg11.dtd">
<!-- Generated by graphviz version 2.47.0 (20210316.0004)
 -->
<!-- Title: dependencies Pages: 1 -->
<svg width="2297pt" height="431pt"
 viewBox="0.00 0.00 2297.00 431.00" xmlns="http://www.w3.org/2000/svg" xmlns:xlink="http://www.w3.org/1999/xlink">
<g id="graph0" class="graph" transform="scale(1 1) rotate(0) translate(4 427)">
<title>dependencies</title>
<polygon fill="white" stroke="transparent" points="-4,4 -4,-427 2293,-427 2293,4 -4,4"/>
<text text-anchor="start" x="1123.51" y="-42.4" font-family="Times-12" font-weight="bold" font-size="14.00">Legend</text>
<polygon fill="#ffffb3" stroke="transparent" points="910.5,-10 910.5,-30 930.5,-30 930.5,-10 910.5,-10"/>
<text text-anchor="start" x="934.13" y="-15.4" font-family="Times-12" font-size="14.00"> &#160;Declarations</text>
<polygon fill="#8dd3c7" stroke="transparent" points="1023.5,-10 1023.5,-30 1043.5,-30 1043.5,-10 1023.5,-10"/>
<text text-anchor="start" x="1047.23" y="-15.4" font-family="Times-12" font-size="14.00"> &#160;Module</text>
<polygon fill="#80b1d3" stroke="transparent" points="1109.5,-10 1109.5,-30 1129.5,-30 1129.5,-10 1109.5,-10"/>
<text text-anchor="start" x="1133.28" y="-15.4" font-family="Times-12" font-size="14.00"> &#160;Bootstrap</text>
<polygon fill="#fdb462" stroke="transparent" points="1206.5,-10 1206.5,-30 1226.5,-30 1226.5,-10 1206.5,-10"/>
<text text-anchor="start" x="1230.17" y="-15.4" font-family="Times-12" font-size="14.00"> &#160;Providers</text>
<polygon fill="#fb8072" stroke="transparent" points="1302.5,-10 1302.5,-30 1322.5,-30 1322.5,-10 1302.5,-10"/>
<text text-anchor="start" x="1326.23" y="-15.4" font-family="Times-12" font-size="14.00"> &#160;Exports</text>
<g id="clust1" class="cluster">
<title>cluster_AppModule</title>
<polygon fill="none" stroke="black" stroke-dasharray="1,5" points="889,-146 889,-415 1685,-415 1685,-146 889,-146"/>
</g>
<g id="clust2" class="cluster">
<title>cluster_AppModule_declarations</title>
<polygon fill="none" stroke="black" points="1403,-219 1403,-271 1677,-271 1677,-219 1403,-219"/>
</g>
<g id="clust5" class="cluster">
<title>cluster_AppModule_imports</title>
<polygon fill="none" stroke="black" points="1091,-154 1091,-271 1395,-271 1395,-154 1091,-154"/>
</g>
<g id="clust7" class="cluster">
<title>cluster_AppModule_bootstrap</title>
<polygon fill="none" stroke="black" points="1242,-355 1242,-407 1366,-407 1366,-355 1242,-355"/>
</g>
<g id="clust8" class="cluster">
<title>cluster_AppModule_providers</title>
<polygon fill="none" stroke="black" points="897,-219 897,-271 1083,-271 1083,-219 897,-219"/>
</g>
<g id="clust15" class="cluster">
<title>cluster_AtomicDesignModule</title>
<polygon fill="none" stroke="black" stroke-dasharray="1,5" points="8,-70 8,-138 2281,-138 2281,-70 8,-70"/>
</g>
<g id="clust16" class="cluster">
<title>cluster_AtomicDesignModule_declarations</title>
<polygon fill="none" stroke="black" points="1066,-78 1066,-130 2087,-130 2087,-78 1066,-78"/>
</g>
<g id="clust23" class="cluster">
<title>cluster_AtomicDesignModule_imports</title>
<polygon fill="none" stroke="black" points="2095,-78 2095,-130 2273,-130 2273,-78 2095,-78"/>
</g>
<g id="clust24" class="cluster">
<title>cluster_AtomicDesignModule_exports</title>
<polygon fill="none" stroke="black" points="16,-78 16,-130 1058,-130 1058,-78 16,-78"/>
</g>
<g id="clust27" class="cluster">
<title>cluster_PagesModule</title>
<polygon fill="none" stroke="black" stroke-dasharray="1,5" points="445,-211 445,-339 881,-339 881,-211 445,-211"/>
</g>
<g id="clust28" class="cluster">
<title>cluster_PagesModule_declarations</title>
<polygon fill="none" stroke="black" points="615,-219 615,-271 873,-271 873,-219 615,-219"/>
</g>
<g id="clust31" class="cluster">
<title>cluster_PagesModule_imports</title>
<polygon fill="none" stroke="black" points="453,-219 453,-271 607,-271 607,-219 453,-219"/>
</g>
<g id="clust41" class="cluster">
<title>cluster_SharedModule</title>
<polygon fill="none" stroke="black" stroke-dasharray="1,5" points="1693,-279 1693,-347 1958,-347 1958,-279 1693,-279"/>
</g>
<g id="clust44" class="cluster">
<title>cluster_SharedModule_exports</title>
<polygon fill="none" stroke="black" points="1701,-287 1701,-339 1950,-339 1950,-287 1701,-287"/>
</g>
<!-- AppComponent -->
<g id="node1" class="node">
<title>AppComponent</title>
<polygon fill="#ffffb3" stroke="black" points="1668.94,-263 1563.06,-263 1563.06,-227 1668.94,-227 1668.94,-263"/>
<text text-anchor="middle" x="1616" y="-240.8" font-family="Times,serif" font-size="14.00">AppComponent</text>
</g>
<!-- AppModule -->
<g id="node3" class="node">
<title>AppModule</title>
<polygon fill="#8dd3c7" stroke="black" points="1345.66,-331 1342.66,-335 1321.66,-335 1318.66,-331 1262.34,-331 1262.34,-295 1345.66,-295 1345.66,-331"/>
<text text-anchor="middle" x="1304" y="-308.8" font-family="Times,serif" font-size="14.00">AppModule</text>
</g>
<!-- AppComponent&#45;&gt;AppModule -->
<g id="edge1" class="edge">
<title>AppComponent&#45;&gt;AppModule</title>
<path fill="none" stroke="black" d="M1616,-263.25C1616,-286.02 1616,-322 1616,-322 1616,-322 1355.75,-322 1355.75,-322"/>
<polygon fill="black" stroke="black" points="1355.75,-318.5 1345.75,-322 1355.75,-325.5 1355.75,-318.5"/>
</g>
<!-- AppMainComponent -->
<g id="node2" class="node">
<title>AppMainComponent</title>
<polygon fill="#ffffb3" stroke="black" points="1545.49,-263 1410.51,-263 1410.51,-227 1545.49,-227 1545.49,-263"/>
<text text-anchor="middle" x="1478" y="-240.8" font-family="Times,serif" font-size="14.00">AppMainComponent</text>
</g>
<!-- AppMainComponent&#45;&gt;AppModule -->
<g id="edge2" class="edge">
<title>AppMainComponent&#45;&gt;AppModule</title>
<path fill="none" stroke="black" d="M1478,-263.22C1478,-283.37 1478,-313 1478,-313 1478,-313 1355.68,-313 1355.68,-313"/>
<polygon fill="black" stroke="black" points="1355.68,-309.5 1345.68,-313 1355.68,-316.5 1355.68,-309.5"/>
</g>
<!-- AppComponent  -->
<g id="node7" class="node">
<title>AppComponent </title>
<polygon fill="#80b1d3" stroke="black" points="1358.44,-399 1249.56,-399 1249.56,-363 1358.44,-363 1358.44,-399"/>
<text text-anchor="middle" x="1304" y="-376.8" font-family="Times,serif" font-size="14.00">AppComponent </text>
</g>
<!-- AppModule&#45;&gt;AppComponent  -->
<g id="edge6" class="edge">
<title>AppModule&#45;&gt;AppComponent </title>
<path fill="none" stroke="black" stroke-dasharray="1,5" d="M1304,-331.22C1304,-331.22 1304,-352.73 1304,-352.73"/>
<polygon fill="black" stroke="black" points="1300.5,-352.73 1304,-362.73 1307.5,-352.73 1300.5,-352.73"/>
</g>
<!-- AppRoutingModule -->
<g id="node4" class="node">
<title>AppRoutingModule</title>
<polygon fill="#8dd3c7" stroke="black" points="1227.27,-198 1224.27,-202 1203.27,-202 1200.27,-198 1098.73,-198 1098.73,-162 1227.27,-162 1227.27,-198"/>
<text text-anchor="middle" x="1163" y="-175.8" font-family="Times,serif" font-size="14.00">AppRoutingModule</text>
</g>
<!-- AppRoutingModule&#45;&gt;AppModule -->
<g id="edge3" class="edge">
<title>AppRoutingModule&#45;&gt;AppModule</title>
<path fill="none" stroke="black" d="M1163,-198.2C1163,-233.31 1163,-307 1163,-307 1163,-307 1252.08,-307 1252.08,-307"/>
<polygon fill="black" stroke="black" points="1252.08,-310.5 1262.08,-307 1252.08,-303.5 1252.08,-310.5"/>
</g>
<!-- AtomicDesignModule -->
<g id="node5" class="node">
<title>AtomicDesignModule</title>
<polygon fill="#8dd3c7" stroke="black" points="1386.7,-198 1383.7,-202 1362.7,-202 1359.7,-198 1245.3,-198 1245.3,-162 1386.7,-162 1386.7,-198"/>
<text text-anchor="middle" x="1316" y="-175.8" font-family="Times,serif" font-size="14.00">AtomicDesignModule</text>
</g>
<!-- AtomicDesignModule&#45;&gt;AppModule -->
<g id="edge4" class="edge">
<title>AtomicDesignModule&#45;&gt;AppModule</title>
<path fill="none" stroke="black" d="M1279.92,-198.21C1279.92,-198.21 1279.92,-284.58 1279.92,-284.58"/>
<polygon fill="black" stroke="black" points="1276.42,-284.58 1279.92,-294.58 1283.42,-284.58 1276.42,-284.58"/>
</g>
<!-- SharedModule -->
<g id="node6" class="node">
<title>SharedModule</title>
<polygon fill="#8dd3c7" stroke="black" points="1387.42,-263 1384.42,-267 1363.42,-267 1360.42,-263 1288.58,-263 1288.58,-227 1387.42,-227 1387.42,-263"/>
<text text-anchor="middle" x="1338" y="-240.8" font-family="Times,serif" font-size="14.00">SharedModule</text>
</g>
<!-- AtomicDesignModule&#45;&gt;SharedModule -->
<g id="edge26" class="edge">
<title>AtomicDesignModule&#45;&gt;SharedModule</title>
<path fill="none" stroke="black" d="M1321.39,-198.11C1321.39,-198.11 1321.39,-216.99 1321.39,-216.99"/>
<polygon fill="black" stroke="black" points="1317.89,-216.99 1321.39,-226.99 1324.89,-216.99 1317.89,-216.99"/>
</g>
<!-- FormAdvancedSearchComponent  -->
<g id="node17" class="node">
<title>FormAdvancedSearchComponent </title>
<polygon fill="#fb8072" stroke="black" points="376,-122 166,-122 166,-86 376,-86 376,-122"/>
<text text-anchor="middle" x="271" y="-99.8" font-family="Times,serif" font-size="14.00">FormAdvancedSearchComponent </text>
</g>
<!-- AtomicDesignModule&#45;&gt;FormAdvancedSearchComponent  -->
<g id="edge16" class="edge">
<title>AtomicDesignModule&#45;&gt;FormAdvancedSearchComponent </title>
<path fill="none" stroke="black" stroke-dasharray="5,2" d="M1276.78,-161.79C1276.78,-156.45 1276.78,-152 1276.78,-152 1276.78,-152 271,-152 271,-152 271,-152 271,-132.15 271,-132.15"/>
<polygon fill="black" stroke="black" points="274.5,-132.15 271,-122.15 267.5,-132.15 274.5,-132.15"/>
</g>
<!-- LoaderComponent  -->
<g id="node18" class="node">
<title>LoaderComponent </title>
<polygon fill="#fb8072" stroke="black" points="148.48,-122 23.52,-122 23.52,-86 148.48,-86 148.48,-122"/>
<text text-anchor="middle" x="86" y="-99.8" font-family="Times,serif" font-size="14.00">LoaderComponent </text>
</g>
<!-- AtomicDesignModule&#45;&gt;LoaderComponent  -->
<g id="edge17" class="edge">
<title>AtomicDesignModule&#45;&gt;LoaderComponent </title>
<path fill="none" stroke="black" stroke-dasharray="5,2" d="M1261.09,-161.88C1261.09,-159.03 1261.09,-157 1261.09,-157 1261.09,-157 86,-157 86,-157 86,-157 86,-132.24 86,-132.24"/>
<polygon fill="black" stroke="black" points="89.5,-132.24 86,-122.24 82.5,-132.24 89.5,-132.24"/>
</g>
<!-- ModalNewModifiedComponent  -->
<g id="node19" class="node">
<title>ModalNewModifiedComponent </title>
<polygon fill="#fb8072" stroke="black" points="1049.91,-122 850.09,-122 850.09,-86 1049.91,-86 1049.91,-122"/>
<text text-anchor="middle" x="950" y="-99.8" font-family="Times,serif" font-size="14.00">ModalNewModifiedComponent </text>
</g>
<!-- AtomicDesignModule&#45;&gt;ModalNewModifiedComponent  -->
<g id="edge18" class="edge">
<title>AtomicDesignModule&#45;&gt;ModalNewModifiedComponent </title>
<path fill="none" stroke="black" stroke-dasharray="5,2" d="M1339.53,-161.85C1339.53,-148.26 1339.53,-132 1339.53,-132 1339.53,-132 977.73,-132 977.73,-132 977.73,-132 977.73,-131.02 977.73,-131.02"/>
<polygon fill="black" stroke="black" points="981.23,-132.21 977.73,-122.21 974.23,-132.21 981.23,-132.21"/>
</g>
<!-- SideBarComponent  -->
<g id="node20" class="node">
<title>SideBarComponent </title>
<polygon fill="#fb8072" stroke="black" points="831.93,-122 702.07,-122 702.07,-86 831.93,-86 831.93,-122"/>
<text text-anchor="middle" x="767" y="-99.8" font-family="Times,serif" font-size="14.00">SideBarComponent </text>
</g>
<!-- AtomicDesignModule&#45;&gt;SideBarComponent  -->
<g id="edge19" class="edge">
<title>AtomicDesignModule&#45;&gt;SideBarComponent </title>
<path fill="none" stroke="black" stroke-dasharray="5,2" d="M1323.84,-161.51C1323.84,-149.86 1323.84,-137 1323.84,-137 1323.84,-137 793.65,-137 793.65,-137 793.65,-137 793.65,-132.04 793.65,-132.04"/>
<polygon fill="black" stroke="black" points="797.15,-132.04 793.65,-122.04 790.15,-132.04 797.15,-132.04"/>
</g>
<!-- TableCrudComponent  -->
<g id="node21" class="node">
<title>TableCrudComponent </title>
<polygon fill="#fb8072" stroke="black" points="684.2,-122 539.8,-122 539.8,-86 684.2,-86 684.2,-122"/>
<text text-anchor="middle" x="612" y="-99.8" font-family="Times,serif" font-size="14.00">TableCrudComponent </text>
</g>
<!-- AtomicDesignModule&#45;&gt;TableCrudComponent  -->
<g id="edge20" class="edge">
<title>AtomicDesignModule&#45;&gt;TableCrudComponent </title>
<path fill="none" stroke="black" stroke-dasharray="5,2" d="M1308.16,-161.89C1308.16,-152.1 1308.16,-142 1308.16,-142 1308.16,-142 653.48,-142 653.48,-142 653.48,-142 653.48,-132.11 653.48,-132.11"/>
<polygon fill="black" stroke="black" points="656.98,-132.11 653.48,-122.11 649.98,-132.11 656.98,-132.11"/>
</g>
<!-- TopBarComponent  -->
<g id="node22" class="node">
<title>TopBarComponent </title>
<polygon fill="#fb8072" stroke="black" points="521.6,-122 394.4,-122 394.4,-86 521.6,-86 521.6,-122"/>
<text text-anchor="middle" x="458" y="-99.8" font-family="Times,serif" font-size="14.00">TopBarComponent </text>
</g>
<!-- AtomicDesignModule&#45;&gt;TopBarComponent  -->
<g id="edge21" class="edge">
<title>AtomicDesignModule&#45;&gt;TopBarComponent </title>
<path fill="none" stroke="black" stroke-dasharray="5,2" d="M1292.47,-161.96C1292.47,-154.25 1292.47,-147 1292.47,-147 1292.47,-147 491.57,-147 491.57,-147 491.57,-147 491.57,-132.49 491.57,-132.49"/>
<polygon fill="black" stroke="black" points="495.07,-132.49 491.57,-122.49 488.07,-132.49 495.07,-132.49"/>
</g>
<!-- SharedModule&#45;&gt;AppModule -->
<g id="edge5" class="edge">
<title>SharedModule&#45;&gt;AppModule</title>
<path fill="none" stroke="black" d="M1317.31,-263.22C1317.31,-263.22 1317.31,-284.73 1317.31,-284.73"/>
<polygon fill="black" stroke="black" points="1313.81,-284.73 1317.31,-294.73 1320.81,-284.73 1313.81,-284.73"/>
</g>
<!-- PagesModule -->
<g id="node25" class="node">
<title>PagesModule</title>
<polygon fill="#8dd3c7" stroke="black" points="791.21,-331 788.21,-335 767.21,-335 764.21,-331 698.79,-331 698.79,-295 791.21,-295 791.21,-331"/>
<text text-anchor="middle" x="745" y="-308.8" font-family="Times,serif" font-size="14.00">PagesModule</text>
</g>
<!-- SharedModule&#45;&gt;PagesModule -->
<g id="edge25" class="edge">
<title>SharedModule&#45;&gt;PagesModule</title>
<path fill="none" stroke="black" d="M1288.32,-239C1271.02,-239 1255.85,-239 1255.85,-239 1255.85,-239 1255.85,-319 1255.85,-319 1255.85,-319 801.24,-319 801.24,-319"/>
<polygon fill="black" stroke="black" points="801.24,-315.5 791.24,-319 801.24,-322.5 801.24,-315.5"/>
</g>
<!-- AtomicDesignModule  -->
<g id="node27" class="node">
<title>AtomicDesignModule </title>
<polygon fill="#fb8072" stroke="black" points="1942.2,-331 1797.8,-331 1797.8,-295 1942.2,-295 1942.2,-331"/>
<text text-anchor="middle" x="1870" y="-308.8" font-family="Times,serif" font-size="14.00">AtomicDesignModule </text>
</g>
<!-- SharedModule&#45;&gt;AtomicDesignModule  -->
<g id="edge28" class="edge">
<title>SharedModule&#45;&gt;AtomicDesignModule </title>
<path fill="none" stroke="black" stroke-dasharray="5,2" d="M1368.05,-263.19C1368.05,-271.28 1368.05,-279 1368.05,-279 1368.05,-279 1831.43,-279 1831.43,-279 1831.43,-279 1831.43,-284.81 1831.43,-284.81"/>
<polygon fill="black" stroke="black" points="1827.93,-284.81 1831.43,-294.81 1834.93,-284.81 1827.93,-284.81"/>
</g>
<!-- DatePipe  -->
<g id="node28" class="node">
<title>DatePipe </title>
<polygon fill="#fb8072" stroke="black" points="1779.31,-331 1708.69,-331 1708.69,-295 1779.31,-295 1779.31,-331"/>
<text text-anchor="middle" x="1744" y="-308.8" font-family="Times,serif" font-size="14.00">DatePipe </text>
</g>
<!-- SharedModule&#45;&gt;DatePipe  -->
<g id="edge29" class="edge">
<title>SharedModule&#45;&gt;DatePipe </title>
<path fill="none" stroke="black" stroke-dasharray="5,2" d="M1377.63,-263.02C1377.63,-280.37 1377.63,-304 1377.63,-304 1377.63,-304 1698.54,-304 1698.54,-304"/>
<polygon fill="black" stroke="black" points="1698.54,-307.5 1708.54,-304 1698.54,-300.5 1698.54,-307.5"/>
</g>
<!-- RequestInterceptor -->
<g id="node8" class="node">
<title>RequestInterceptor</title>
<ellipse fill="#fdb462" stroke="black" cx="990" cy="-245" rx="84.51" ry="18"/>
<text text-anchor="middle" x="990" y="-240.8" font-family="Times,serif" font-size="14.00">RequestInterceptor</text>
</g>
<!-- RequestInterceptor&#45;&gt;AppModule -->
<g id="edge7" class="edge">
<title>RequestInterceptor&#45;&gt;AppModule</title>
<path fill="none" stroke="black" d="M1069.78,-251C1152.87,-251 1271.04,-251 1271.04,-251 1271.04,-251 1271.04,-284.73 1271.04,-284.73"/>
<polygon fill="black" stroke="black" points="1267.54,-284.73 1271.04,-294.73 1274.54,-284.73 1267.54,-284.73"/>
</g>
<!-- FormAdvancedSearchComponent -->
<g id="node9" class="node">
<title>FormAdvancedSearchComponent</title>
<polygon fill="#ffffb3" stroke="black" points="1419,-122 1213,-122 1213,-86 1419,-86 1419,-122"/>
<text text-anchor="middle" x="1316" y="-99.8" font-family="Times,serif" font-size="14.00">FormAdvancedSearchComponent</text>
</g>
<!-- FormAdvancedSearchComponent&#45;&gt;AtomicDesignModule -->
<g id="edge8" class="edge">
<title>FormAdvancedSearchComponent&#45;&gt;AtomicDesignModule</title>
<path fill="none" stroke="black" d="M1370.91,-122.01C1370.91,-122.01 1370.91,-151.85 1370.91,-151.85"/>
<polygon fill="black" stroke="black" points="1367.41,-151.85 1370.91,-161.85 1374.41,-151.85 1367.41,-151.85"/>
</g>
<!-- LoaderComponent -->
<g id="node10" class="node">
<title>LoaderComponent</title>
<polygon fill="#ffffb3" stroke="black" points="1194.47,-122 1073.53,-122 1073.53,-86 1194.47,-86 1194.47,-122"/>
<text text-anchor="middle" x="1134" y="-99.8" font-family="Times,serif" font-size="14.00">LoaderComponent</text>
</g>
<!-- LoaderComponent&#45;&gt;AtomicDesignModule -->
<g id="edge9" class="edge">
<title>LoaderComponent&#45;&gt;AtomicDesignModule</title>
<path fill="none" stroke="black" d="M1146.55,-122.12C1146.55,-124.97 1146.55,-127 1146.55,-127 1146.55,-127 1355.22,-127 1355.22,-127 1355.22,-127 1355.22,-151.76 1355.22,-151.76"/>
<polygon fill="black" stroke="black" points="1351.72,-151.76 1355.22,-161.76 1358.72,-151.76 1351.72,-151.76"/>
</g>
<!-- ModalNewModifiedComponent -->
<g id="node11" class="node">
<title>ModalNewModifiedComponent</title>
<polygon fill="#ffffb3" stroke="black" points="2079.41,-122 1882.59,-122 1882.59,-86 2079.41,-86 2079.41,-122"/>
<text text-anchor="middle" x="1981" y="-99.8" font-family="Times,serif" font-size="14.00">ModalNewModifiedComponent</text>
</g>
<!-- ModalNewModifiedComponent&#45;&gt;AtomicDesignModule -->
<g id="edge10" class="edge">
<title>ModalNewModifiedComponent&#45;&gt;AtomicDesignModule</title>
<path fill="none" stroke="black" d="M1912.57,-122.32C1912.57,-145.66 1912.57,-183 1912.57,-183 1912.57,-183 1396.78,-183 1396.78,-183"/>
<polygon fill="black" stroke="black" points="1396.78,-179.5 1386.78,-183 1396.78,-186.5 1396.78,-179.5"/>
</g>
<!-- SideBarComponent -->
<g id="node12" class="node">
<title>SideBarComponent</title>
<polygon fill="#ffffb3" stroke="black" points="1865.43,-122 1738.57,-122 1738.57,-86 1865.43,-86 1865.43,-122"/>
<text text-anchor="middle" x="1802" y="-99.8" font-family="Times,serif" font-size="14.00">SideBarComponent</text>
</g>
<!-- SideBarComponent&#45;&gt;AtomicDesignModule -->
<g id="edge11" class="edge">
<title>SideBarComponent&#45;&gt;AtomicDesignModule</title>
<path fill="none" stroke="black" d="M1759.1,-122.29C1759.1,-144.21 1759.1,-178 1759.1,-178 1759.1,-178 1396.7,-178 1396.7,-178"/>
<polygon fill="black" stroke="black" points="1396.7,-174.5 1386.7,-178 1396.7,-181.5 1396.7,-174.5"/>
</g>
<!-- TableCrudComponent -->
<g id="node13" class="node">
<title>TableCrudComponent</title>
<polygon fill="#ffffb3" stroke="black" points="1720.7,-122 1579.3,-122 1579.3,-86 1720.7,-86 1720.7,-122"/>
<text text-anchor="middle" x="1650" y="-99.8" font-family="Times,serif" font-size="14.00">TableCrudComponent</text>
</g>
<!-- TableCrudComponent&#45;&gt;AtomicDesignModule -->
<g id="edge12" class="edge">
<title>TableCrudComponent&#45;&gt;AtomicDesignModule</title>
<path fill="none" stroke="black" d="M1624.06,-122.13C1624.06,-142.57 1624.06,-173 1624.06,-173 1624.06,-173 1396.68,-173 1396.68,-173"/>
<polygon fill="black" stroke="black" points="1396.68,-169.5 1386.68,-173 1396.67,-176.5 1396.68,-169.5"/>
</g>
<!-- TopBarComponent -->
<g id="node14" class="node">
<title>TopBarComponent</title>
<polygon fill="#ffffb3" stroke="black" points="1561.1,-122 1436.9,-122 1436.9,-86 1561.1,-86 1561.1,-122"/>
<text text-anchor="middle" x="1499" y="-99.8" font-family="Times,serif" font-size="14.00">TopBarComponent</text>
</g>
<!-- TopBarComponent&#45;&gt;AtomicDesignModule -->
<g id="edge13" class="edge">
<title>TopBarComponent&#45;&gt;AtomicDesignModule</title>
<path fill="none" stroke="black" d="M1491.22,-122.17C1491.22,-141.09 1491.22,-168 1491.22,-168 1491.22,-168 1396.76,-168 1396.76,-168"/>
<polygon fill="black" stroke="black" points="1396.76,-164.5 1386.76,-168 1396.76,-171.5 1396.76,-164.5"/>
</g>
<!-- DatePipe -->
<g id="node15" class="node">
<title>DatePipe</title>
<polygon fill="#8dd3c7" stroke="black" points="2264.81,-122 2261.81,-126 2240.81,-126 2237.81,-122 2197.19,-122 2197.19,-86 2264.81,-86 2264.81,-122"/>
<text text-anchor="middle" x="2231" y="-99.8" font-family="Times,serif" font-size="14.00">DatePipe</text>
</g>
<!-- DatePipe&#45;&gt;AtomicDesignModule -->
<g id="edge14" class="edge">
<title>DatePipe&#45;&gt;AtomicDesignModule</title>
<path fill="none" stroke="black" d="M2219.78,-122.01C2219.78,-148.02 2219.78,-193 2219.78,-193 2219.78,-193 1396.92,-193 1396.92,-193"/>
<polygon fill="black" stroke="black" points="1396.92,-189.5 1386.92,-193 1396.92,-196.5 1396.92,-189.5"/>
</g>
<!-- DatePipe&#45;&gt;SharedModule -->
<g id="edge27" class="edge">
<title>DatePipe&#45;&gt;SharedModule</title>
<path fill="none" stroke="black" d="M2242.22,-122.49C2242.22,-153.59 2242.22,-213 2242.22,-213 2242.22,-213 1354,-213 1354,-213 1354,-213 1354,-216.76 1354,-216.76"/>
<polygon fill="black" stroke="black" points="1350.5,-216.76 1354,-226.76 1357.5,-216.76 1350.5,-216.76"/>
</g>
<!-- PhonePipe -->
<g id="node16" class="node">
<title>PhonePipe</title>
<polygon fill="#8dd3c7" stroke="black" points="2178.89,-122 2175.89,-126 2154.89,-126 2151.89,-122 2103.11,-122 2103.11,-86 2178.89,-86 2178.89,-122"/>
<text text-anchor="middle" x="2141" y="-99.8" font-family="Times,serif" font-size="14.00">PhonePipe</text>
</g>
<!-- PhonePipe&#45;&gt;AtomicDesignModule -->
<g id="edge15" class="edge">
<title>PhonePipe&#45;&gt;AtomicDesignModule</title>
<path fill="none" stroke="black" d="M2141,-122.23C2141,-146.93 2141,-188 2141,-188 2141,-188 1396.7,-188 1396.7,-188"/>
<polygon fill="black" stroke="black" points="1396.7,-184.5 1386.7,-188 1396.7,-191.5 1396.7,-184.5"/>
</g>
<!-- CrudComponent -->
<g id="node23" class="node">
<title>CrudComponent</title>
<polygon fill="#ffffb3" stroke="black" points="864.83,-263 755.17,-263 755.17,-227 864.83,-227 864.83,-263"/>
<text text-anchor="middle" x="810" y="-240.8" font-family="Times,serif" font-size="14.00">CrudComponent</text>
</g>
<!-- CrudComponent&#45;&gt;PagesModule -->
<g id="edge22" class="edge">
<title>CrudComponent&#45;&gt;PagesModule</title>
<path fill="none" stroke="black" d="M773.22,-263.22C773.22,-263.22 773.22,-284.73 773.22,-284.73"/>
<polygon fill="black" stroke="black" points="769.72,-284.73 773.22,-294.73 776.72,-284.73 769.72,-284.73"/>
</g>
<!-- LoginComponent -->
<g id="node24" class="node">
<title>LoginComponent</title>
<polygon fill="#ffffb3" stroke="black" points="737.28,-263 622.72,-263 622.72,-227 737.28,-227 737.28,-263"/>
<text text-anchor="middle" x="680" y="-240.8" font-family="Times,serif" font-size="14.00">LoginComponent</text>
</g>
<!-- LoginComponent&#45;&gt;PagesModule -->
<g id="edge23" class="edge">
<title>LoginComponent&#45;&gt;PagesModule</title>
<path fill="none" stroke="black" d="M718.14,-263.22C718.14,-263.22 718.14,-284.73 718.14,-284.73"/>
<polygon fill="black" stroke="black" points="714.64,-284.73 718.14,-294.73 721.64,-284.73 714.64,-284.73"/>
</g>
<!-- PagesRoutingModule -->
<g id="node26" class="node">
<title>PagesRoutingModule</title>
<polygon fill="#8dd3c7" stroke="black" points="598.82,-263 595.82,-267 574.82,-267 571.82,-263 461.18,-263 461.18,-227 598.82,-227 598.82,-263"/>
<text text-anchor="middle" x="530" y="-240.8" font-family="Times,serif" font-size="14.00">PagesRoutingModule</text>
</g>
<!-- PagesRoutingModule&#45;&gt;PagesModule -->
<g id="edge24" class="edge">
<title>PagesRoutingModule&#45;&gt;PagesModule</title>
<path fill="none" stroke="black" d="M530,-263.22C530,-283.37 530,-313 530,-313 530,-313 688.88,-313 688.88,-313"/>
<polygon fill="black" stroke="black" points="688.88,-316.5 698.88,-313 688.88,-309.5 688.88,-316.5"/>
</g>
</g>
</svg>
